<svg xmlns="http://www.w3.org/2000/svg" xmlns:xlink="http://www.w3.org/1999/xlink" width="558" height="325" viewBox="0 0 558 325">
    <defs>
        <linearGradient id="a" x1="50%" x2="50%" y1=".659%" y2="100%">
            <stop offset="0%" stop-color="#E0F2F4"/>
            <stop offset="100%" stop-color="#F0F8F9"/>
        </linearGradient>
        <path id="b" d="M.757.305H126.48V65.91H.757z"/>
        <path id="d" d="M.667.114h19.016v147.362H.667z"/>
    </defs>
    <g fill="none" fill-rule="evenodd">
        <path fill="url(#a)" d="M505.939 74.902c-86.263-61.35-127.53-50.09-302.588-50.09-175.058 0-215.054 78.208-200.657 118.806 14.398 40.599 112.006 23.193 152.464 71.098s20.865 110.023 121.474 110.023c100.609 0 181.007-31.79 229.307-79.378 48.3-47.588 86.262-109.109 0-170.459z" transform="matrix(1 0 0 -1 0 348.739)"/>
        <path fill="#FC6" d="M287 165.5c0 8.007-6.493 14.5-14.5 14.5s-14.5-6.493-14.5-14.5c0-8.009 6.493-14.5 14.5-14.5s14.5 6.491 14.5 14.5"/>
        <path fill="#00B9B6" d="M273 4.226v131.542c0 .955-1.721 1.546-3.085 1.056-12.422-4.457-55.552-28.19-.906-132.958.7-1.344 3.991-1.047 3.991.36"/>
        <g transform="translate(301 162)">
            <mask id="c" fill="#fff">
                <use xlink:href="#b"/>
            </mask>
            <path fill="#00B9B6" d="M124.32 65.849L1.372 16.853c-.893-.356-.797-2.172.175-3.254 8.847-9.858 47.284-41.014 124.614 48.684.99 1.149-.529 4.09-1.843 3.566" mask="url(#c)"/>
        </g>
        <path fill="#00B9B6" d="M120.506 243.227l116.764-62.134c.85-.453 2.175.822 2.377 2.284 1.836 13.318.88 63.456-117.6 63.623-1.519.001-2.79-3.108-1.54-3.773"/>
        <path fill="#231F20" d="M122.047 325h54.906c2.73 0 2.73-4 0-4h-54.906c-2.73 0-2.73 4 0 4M386.153 325h9.695c2.87 0 2.87-4 0-4h-9.695c-2.87 0-2.87 4 0 4M403.991 325h19.018c2.655 0 2.655-4 0-4H403.99c-2.655 0-2.655 4 0 4"/>
        <path fill="#FFF" d="M265.01 164.993c.416 8.01 11.575 8.01 11.99 0-.414-7.97-12.406-8.012-11.99 0"/>
        <path fill="#231F20" d="M265.203 165.5c-.438-8.125 12.17-8.082 12.605 0-.437 8.12-12.168 8.12-12.605 0m16.794 0a2.164 2.164 0 0 0-.059-.615c-.571-5.604-4.708-9.562-10.434-9.871-5.92-.32-10.197 5.035-10.49 10.485-.32 5.92 5.038 10.194 10.49 10.487 5.695.307 9.858-4.634 10.431-9.861a2.12 2.12 0 0 0 .062-.626M425.685 224.788c-5.67-7.849-13.722-14.182-21.515-19.698-21.31-15.082-46.737-23.538-72.23-27.698-2.627-.427-3.755 3.63-1.108 4.063 24.973 4.072 49.32 12.266 70.375 26.671 5.044 3.453 10.785 7.929 15.433 12.545-41.712-16.838-83.426-33.673-125.139-50.512-2.497-1.009-3.57 3.065-1.108 4.061 44.313 17.886 88.626 35.773 132.941 53.662 1.655.668 3.392-1.653 2.351-3.094M255.855 170.257L129.04 236.91c-1.976 1.039-.86 3.766 1.05 3.925 9.52.785 19.617-1.341 28.756-3.716 25.183-6.543 47.97-20.531 67.743-37.335 2.055-1.747-.9-4.711-2.94-2.978-19.332 16.427-41.402 29.65-65.909 36.25-6.07 1.637-12.598 3.055-19.076 3.535 39.763-20.898 79.526-41.797 119.29-62.694 2.38-1.251.277-4.887-2.1-3.639"/>
        <g transform="translate(256)">
            <mask id="e" fill="#fff">
                <use xlink:href="#d"/>
            </mask>
            <path fill="#231F20" d="M15.667 1.094C10.197 9.297 7.122 19.416 4.79 28.791c-6.269 25.186-4.838 51.671.606 76.855.569 2.63 4.721 1.515 4.154-1.11-5.389-24.935-6.527-50.84-.33-75.74 1.489-5.977 3.369-12.25 6.036-18.061-.62 44.907-1.236 89.815-1.853 134.724-.037 2.69 4.272 2.688 4.308 0L19.683 2.148C19.71-.005 16.797-.6 15.667 1.094" mask="url(#e)"/>
        </g>
        <path fill="#231F20" d="M372.983 320.795h-97.934v-133.76c0-2.713-4.17-2.713-4.17 0v133.76h-78.862c-2.69 0-2.69 4.205 0 4.205h180.966c2.69 0 2.69-4.205 0-4.205M312 232.882l.812 2.118a73.09 73.09 0 0 0 4.188-1.935l-.934-2.065a73.546 73.546 0 0 1-4.066 1.882M321 228.175l1.055 1.825a76.935 76.935 0 0 0 3.945-2.24l-1.168-1.76a73.759 73.759 0 0 1-3.832 2.175"/>
        <path fill="#231F20" d="M305 236.135l.568 1.865a84.847 84.847 0 0 0 4.432-1.169l-.698-1.831a80.789 80.789 0 0 1-4.302 1.135M342 211.561l1.472 1.439a77.224 77.224 0 0 0 2.528-3.668L344.455 208a76.15 76.15 0 0 1-2.455 3.561M335 216.647l1.248 1.353c.944-.88 1.87-1.797 2.752-2.724L337.675 214a61.544 61.544 0 0 1-2.675 2.647M328 223.427l1.301 1.573c1.26-.8 2.504-1.64 3.699-2.498L331.592 221a74.914 74.914 0 0 1-3.592 2.427M171.588 162l-2.588.088c.083 1.302.226 2.618.42 3.912l2.58-.2a45.307 45.307 0 0 1-.412-3.8M173.128 173l-2.128.301c.253 1.238.556 2.483.898 3.699l2.102-.406a51.614 51.614 0 0 1-.872-3.594M172 154.141l-2.74-.141a46.13 46.13 0 0 0-.26 3.974l2.748.026c.027-1.275.111-2.574.252-3.859M181.767 198L180 199.107a77.803 77.803 0 0 0 2.3 3.893l1.7-1.218a74.996 74.996 0 0 1-2.233-3.782M178.05 189l-2.05.867a76.278 76.278 0 0 0 2.008 4.133l1.992-.985a73.527 73.527 0 0 1-1.95-4.015M174.794 181l-1.794.628c.376 1.47.794 2.94 1.24 4.372l1.76-.751a83.85 83.85 0 0 1-1.206-4.249M315.744 77L317 75.65a65.468 65.468 0 0 0-2.824-2.65L313 74.426c.936.825 1.858 1.691 2.744 2.574M309.677 70L311 68.412A78.295 78.295 0 0 0 307.216 66L306 67.658c1.243.741 2.48 1.53 3.677 2.342M322.529 82L324 80.866A64.437 64.437 0 0 0 321.394 78L320 79.218c.865.893 1.715 1.83 2.529 2.782M285.383 60l.617-1.941A85.347 85.347 0 0 0 281.486 57L281 58.97c1.465.301 2.938.648 4.383 1.03M294.147 62l.853-1.637A86.666 86.666 0 0 0 290.731 59L290 60.675c1.385.404 2.78.85 4.147 1.325M301.914 66L303 64.14a78.143 78.143 0 0 0-4.028-2.14L298 63.92c1.316.649 2.633 1.349 3.914 2.08"/>
    </g>
</svg>
